<?xml version="1.0" encoding="UTF-8" standalone="no"?>
<svg width="264.848mm" height="211.931mm"
 xmlns="http://www.w3.org/2000/svg" xmlns:xlink="http://www.w3.org/1999/xlink"  version="1.2" baseProfile="tiny">
<title>Nombre de notices publiées par années</title>
<desc>Rendered by Tableau</desc>
<defs>
</defs>
<g fill="none" stroke="black" stroke-width="1" fill-rule="evenodd" stroke-linecap="square" stroke-linejoin="bevel" >

<g >
<g fill="#ffffff" fill-opacity="1" stroke="none" transform="matrix(1,0,0,1,0,0)"
font-family="Benton Sans Book" font-size="13.3333" font-weight="400" font-style="normal" 
>
<rect x="0" y="0" width="1001" height="801"/>
</g>
</g>

<g >
<g fill="#000000" fill-opacity="0" stroke="none" transform="matrix(1,0,0,1,12,55)"
font-family="Benton Sans Book" font-size="13.3333" font-weight="400" font-style="normal" 
>
<rect x="0" y="0" width="976" height="733"/>
</g>
</g>

<g >
<g fill="#ffffff" fill-opacity="1" stroke="none" transform="matrix(1,0,0,1,12,55)"
font-family="Benton Sans Book" font-size="13.3333" font-weight="400" font-style="normal" 
>
<rect x="0" y="0" width="976" height="733"/>
</g>
</g>

<clipPath id ="clip1" >
<rect x="-1" y="-1" height="32" width="947" transform="matrix(1,0,0,1,43,758)" />
</clipPath>
<g  clip-path="url(#clip1)" 
>
<g fill="none" stroke="#000000" stroke-opacity="1" stroke-width="1" stroke-linecap="square" stroke-linejoin="bevel" transform="matrix(1,0,0,1,43,758)"
font-family="Benton Sans Book" font-size="13.3333" font-weight="400" font-style="normal" 
>
</g>
</g>

<g  clip-path="url(#clip1)" 
>
<g fill="none" stroke="#f5f5f5" stroke-opacity="1" stroke-width="1" stroke-linecap="butt" stroke-linejoin="bevel" transform="matrix(1,0,0,1,43,758)"
font-family="Benton Sans Book" font-size="13.3333" font-weight="400" font-style="normal" 
>
<polyline fill="none" vector-effect="none" points="59,0 59,5 " />
<polyline fill="none" vector-effect="none" points="132,0 132,5 " />
<polyline fill="none" vector-effect="none" points="206,0 206,5 " />
<polyline fill="none" vector-effect="none" points="280,0 280,5 " />
<polyline fill="none" vector-effect="none" points="354,0 354,5 " />
<polyline fill="none" vector-effect="none" points="428,0 428,5 " />
<polyline fill="none" vector-effect="none" points="502,0 502,5 " />
<polyline fill="none" vector-effect="none" points="575,0 575,5 " />
<polyline fill="none" vector-effect="none" points="649,0 649,5 " />
<polyline fill="none" vector-effect="none" points="723,0 723,5 " />
<polyline fill="none" vector-effect="none" points="797,0 797,5 " />
<polyline fill="none" vector-effect="none" points="871,0 871,5 " />
<polyline fill="none" vector-effect="none" points="944,0 944,5 " />
</g>
</g>

<g  clip-path="url(#clip1)" 
>
<g fill="none" stroke="#f5f5f5" stroke-opacity="1" stroke-width="1" stroke-linecap="butt" stroke-linejoin="bevel" transform="matrix(1,0,0,1,43,758)"
font-family="Benton Sans Book" font-size="13.3333" font-weight="400" font-style="normal" 
>
<polyline fill="none" vector-effect="none" points="0,0 0,2 " />
<polyline fill="none" vector-effect="none" points="14,0 14,2 " />
<polyline fill="none" vector-effect="none" points="29,0 29,2 " />
<polyline fill="none" vector-effect="none" points="44,0 44,2 " />
<polyline fill="none" vector-effect="none" points="73,0 73,2 " />
<polyline fill="none" vector-effect="none" points="88,0 88,2 " />
<polyline fill="none" vector-effect="none" points="103,0 103,2 " />
<polyline fill="none" vector-effect="none" points="118,0 118,2 " />
<polyline fill="none" vector-effect="none" points="147,0 147,2 " />
<polyline fill="none" vector-effect="none" points="162,0 162,2 " />
<polyline fill="none" vector-effect="none" points="177,0 177,2 " />
<polyline fill="none" vector-effect="none" points="191,0 191,2 " />
<polyline fill="none" vector-effect="none" points="221,0 221,2 " />
<polyline fill="none" vector-effect="none" points="236,0 236,2 " />
<polyline fill="none" vector-effect="none" points="251,0 251,2 " />
<polyline fill="none" vector-effect="none" points="265,0 265,2 " />
<polyline fill="none" vector-effect="none" points="295,0 295,2 " />
<polyline fill="none" vector-effect="none" points="310,0 310,2 " />
<polyline fill="none" vector-effect="none" points="324,0 324,2 " />
<polyline fill="none" vector-effect="none" points="339,0 339,2 " />
<polyline fill="none" vector-effect="none" points="369,0 369,2 " />
<polyline fill="none" vector-effect="none" points="383,0 383,2 " />
<polyline fill="none" vector-effect="none" points="398,0 398,2 " />
<polyline fill="none" vector-effect="none" points="413,0 413,2 " />
<polyline fill="none" vector-effect="none" points="442,0 442,2 " />
<polyline fill="none" vector-effect="none" points="457,0 457,2 " />
<polyline fill="none" vector-effect="none" points="472,0 472,2 " />
<polyline fill="none" vector-effect="none" points="487,0 487,2 " />
<polyline fill="none" vector-effect="none" points="516,0 516,2 " />
<polyline fill="none" vector-effect="none" points="531,0 531,2 " />
<polyline fill="none" vector-effect="none" points="546,0 546,2 " />
<polyline fill="none" vector-effect="none" points="561,0 561,2 " />
<polyline fill="none" vector-effect="none" points="590,0 590,2 " />
<polyline fill="none" vector-effect="none" points="605,0 605,2 " />
<polyline fill="none" vector-effect="none" points="620,0 620,2 " />
<polyline fill="none" vector-effect="none" points="634,0 634,2 " />
<polyline fill="none" vector-effect="none" points="664,0 664,2 " />
<polyline fill="none" vector-effect="none" points="679,0 679,2 " />
<polyline fill="none" vector-effect="none" points="693,0 693,2 " />
<polyline fill="none" vector-effect="none" points="708,0 708,2 " />
<polyline fill="none" vector-effect="none" points="738,0 738,2 " />
<polyline fill="none" vector-effect="none" points="753,0 753,2 " />
<polyline fill="none" vector-effect="none" points="767,0 767,2 " />
<polyline fill="none" vector-effect="none" points="782,0 782,2 " />
<polyline fill="none" vector-effect="none" points="812,0 812,2 " />
<polyline fill="none" vector-effect="none" points="826,0 826,2 " />
<polyline fill="none" vector-effect="none" points="841,0 841,2 " />
<polyline fill="none" vector-effect="none" points="856,0 856,2 " />
<polyline fill="none" vector-effect="none" points="885,0 885,2 " />
<polyline fill="none" vector-effect="none" points="900,0 900,2 " />
<polyline fill="none" vector-effect="none" points="915,0 915,2 " />
<polyline fill="none" vector-effect="none" points="930,0 930,2 " />
</g>
</g>

<g  clip-path="url(#clip1)" 
>
<g fill="none" stroke="#666666" stroke-opacity="1" stroke-width="1" stroke-linecap="square" stroke-linejoin="bevel" transform="matrix(1,0,0,1,43,758)"
font-family="Montserrat Black" font-size="13" font-weight="400" font-style="normal" 
>
<text fill="#666666" fill-opacity="1" stroke="none" xml:space="preserve" x="43.9219" y="20" font-family="Montserrat Black" font-size="13" font-weight="400" font-style="normal" 
 >1966</text>
</g>
</g>

<g  clip-path="url(#clip1)" 
>
<g fill="none" stroke="#666666" stroke-opacity="1" stroke-width="1" stroke-linecap="square" stroke-linejoin="bevel" transform="matrix(1,0,0,1,43,758)"
font-family="Montserrat Black" font-size="13" font-weight="400" font-style="normal" 
>
<text fill="#666666" fill-opacity="1" stroke="none" xml:space="preserve" x="119.094" y="20" font-family="Montserrat Black" font-size="13" font-weight="400" font-style="normal" 
 >1971</text>
</g>
</g>

<g  clip-path="url(#clip1)" 
>
<g fill="none" stroke="#666666" stroke-opacity="1" stroke-width="1" stroke-linecap="square" stroke-linejoin="bevel" transform="matrix(1,0,0,1,43,758)"
font-family="Montserrat Black" font-size="13" font-weight="400" font-style="normal" 
>
<text fill="#666666" fill-opacity="1" stroke="none" xml:space="preserve" x="191.016" y="20" font-family="Montserrat Black" font-size="13" font-weight="400" font-style="normal" 
 >1976</text>
</g>
</g>

<g  clip-path="url(#clip1)" 
>
<g fill="none" stroke="#666666" stroke-opacity="1" stroke-width="1" stroke-linecap="square" stroke-linejoin="bevel" transform="matrix(1,0,0,1,43,758)"
font-family="Montserrat Black" font-size="13" font-weight="400" font-style="normal" 
>
<text fill="#666666" fill-opacity="1" stroke="none" xml:space="preserve" x="266.875" y="20" font-family="Montserrat Black" font-size="13" font-weight="400" font-style="normal" 
 >1981</text>
</g>
</g>

<g  clip-path="url(#clip1)" 
>
<g fill="none" stroke="#666666" stroke-opacity="1" stroke-width="1" stroke-linecap="square" stroke-linejoin="bevel" transform="matrix(1,0,0,1,43,758)"
font-family="Montserrat Black" font-size="13" font-weight="400" font-style="normal" 
>
<text fill="#666666" fill-opacity="1" stroke="none" xml:space="preserve" x="338.797" y="20" font-family="Montserrat Black" font-size="13" font-weight="400" font-style="normal" 
 >1986</text>
</g>
</g>

<g  clip-path="url(#clip1)" 
>
<g fill="none" stroke="#666666" stroke-opacity="1" stroke-width="1" stroke-linecap="square" stroke-linejoin="bevel" transform="matrix(1,0,0,1,43,758)"
font-family="Montserrat Black" font-size="13" font-weight="400" font-style="normal" 
>
<text fill="#666666" fill-opacity="1" stroke="none" xml:space="preserve" x="414" y="20" font-family="Montserrat Black" font-size="13" font-weight="400" font-style="normal" 
 >1991</text>
</g>
</g>

<g  clip-path="url(#clip1)" 
>
<g fill="none" stroke="#666666" stroke-opacity="1" stroke-width="1" stroke-linecap="square" stroke-linejoin="bevel" transform="matrix(1,0,0,1,43,758)"
font-family="Montserrat Black" font-size="13" font-weight="400" font-style="normal" 
>
<text fill="#666666" fill-opacity="1" stroke="none" xml:space="preserve" x="486.422" y="20" font-family="Montserrat Black" font-size="13" font-weight="400" font-style="normal" 
 >1996</text>
</g>
</g>

<g  clip-path="url(#clip1)" 
>
<g fill="none" stroke="#666666" stroke-opacity="1" stroke-width="1" stroke-linecap="square" stroke-linejoin="bevel" transform="matrix(1,0,0,1,43,758)"
font-family="Montserrat Black" font-size="13" font-weight="400" font-style="normal" 
>
<text fill="#666666" fill-opacity="1" stroke="none" xml:space="preserve" x="559.859" y="20" font-family="Montserrat Black" font-size="13" font-weight="400" font-style="normal" 
 >2001</text>
</g>
</g>

<g  clip-path="url(#clip1)" 
>
<g fill="none" stroke="#666666" stroke-opacity="1" stroke-width="1" stroke-linecap="square" stroke-linejoin="bevel" transform="matrix(1,0,0,1,43,758)"
font-family="Montserrat Black" font-size="13" font-weight="400" font-style="normal" 
>
<text fill="#666666" fill-opacity="1" stroke="none" xml:space="preserve" x="632.781" y="20" font-family="Montserrat Black" font-size="13" font-weight="400" font-style="normal" 
 >2006</text>
</g>
</g>

<g  clip-path="url(#clip1)" 
>
<g fill="none" stroke="#666666" stroke-opacity="1" stroke-width="1" stroke-linecap="square" stroke-linejoin="bevel" transform="matrix(1,0,0,1,43,758)"
font-family="Montserrat Black" font-size="13" font-weight="400" font-style="normal" 
>
<text fill="#666666" fill-opacity="1" stroke="none" xml:space="preserve" x="709.641" y="20" font-family="Montserrat Black" font-size="13" font-weight="400" font-style="normal" 
 >2011</text>
</g>
</g>

<g  clip-path="url(#clip1)" 
>
<g fill="none" stroke="#666666" stroke-opacity="1" stroke-width="1" stroke-linecap="square" stroke-linejoin="bevel" transform="matrix(1,0,0,1,43,758)"
font-family="Montserrat Black" font-size="13" font-weight="400" font-style="normal" 
>
<text fill="#666666" fill-opacity="1" stroke="none" xml:space="preserve" x="782.063" y="20" font-family="Montserrat Black" font-size="13" font-weight="400" font-style="normal" 
 >2016</text>
</g>
</g>

<g  clip-path="url(#clip1)" 
>
<g fill="none" stroke="#666666" stroke-opacity="1" stroke-width="1" stroke-linecap="square" stroke-linejoin="bevel" transform="matrix(1,0,0,1,43,758)"
font-family="Montserrat Black" font-size="13" font-weight="400" font-style="normal" 
>
<text fill="#666666" fill-opacity="1" stroke="none" xml:space="preserve" x="855.906" y="20" font-family="Montserrat Black" font-size="13" font-weight="400" font-style="normal" 
 >2021</text>
</g>
</g>

<g  clip-path="url(#clip1)" 
>
<g fill="none" stroke="#666666" stroke-opacity="1" stroke-width="1" stroke-linecap="square" stroke-linejoin="bevel" transform="matrix(1,0,0,1,43,758)"
font-family="Montserrat Black" font-size="13" font-weight="400" font-style="normal" 
>
<text fill="#666666" fill-opacity="1" stroke="none" xml:space="preserve" x="909.328" y="20" font-family="Montserrat Black" font-size="13" font-weight="400" font-style="normal" 
 >2026</text>
</g>
</g>

<g >
<g fill="none" stroke="#666666" stroke-opacity="1" stroke-width="1" stroke-linecap="square" stroke-linejoin="bevel" transform="matrix(1,0,0,1,43,758)"
font-family="Montserrat Black" font-size="13" font-weight="400" font-style="normal" 
>
</g>
</g>

<clipPath id ="clip2" >
<rect x="-1" y="-1" height="705" width="33" transform="matrix(1,0,0,1,12,55)" />
</clipPath>
<g  clip-path="url(#clip2)" 
>
<g fill="none" stroke="#666666" stroke-opacity="1" stroke-width="1" stroke-linecap="square" stroke-linejoin="bevel" transform="matrix(1,0,0,1,12,55)"
font-family="Montserrat Black" font-size="13" font-weight="400" font-style="normal" 
>
</g>
</g>

<g  clip-path="url(#clip2)" 
>
<g fill="none" stroke="#f5f5f5" stroke-opacity="1" stroke-width="1" stroke-linecap="butt" stroke-linejoin="bevel" transform="matrix(1,0,0,1,12,55)"
font-family="Montserrat Black" font-size="13" font-weight="400" font-style="normal" 
>
<polyline fill="none" vector-effect="none" points="26,703 31,703 " />
<polyline fill="none" vector-effect="none" points="26,624 31,624 " />
<polyline fill="none" vector-effect="none" points="26,545 31,545 " />
<polyline fill="none" vector-effect="none" points="26,466 31,466 " />
<polyline fill="none" vector-effect="none" points="26,387 31,387 " />
<polyline fill="none" vector-effect="none" points="26,308 31,308 " />
<polyline fill="none" vector-effect="none" points="26,229 31,229 " />
<polyline fill="none" vector-effect="none" points="26,150 31,150 " />
<polyline fill="none" vector-effect="none" points="26,71 31,71 " />
</g>
</g>

<g  clip-path="url(#clip2)" 
>
<g fill="none" stroke="#666666" stroke-opacity="1" stroke-width="1" stroke-linecap="square" stroke-linejoin="bevel" transform="matrix(1,0,0,1,12,55)"
font-family="Montserrat Black" font-size="13" font-weight="400" font-style="normal" 
>
<text fill="#666666" fill-opacity="1" stroke="none" xml:space="preserve" x="15.0156" y="700" font-family="Montserrat Black" font-size="13" font-weight="400" font-style="normal" 
 >0</text>
</g>
</g>

<g  clip-path="url(#clip2)" 
>
<g fill="none" stroke="#666666" stroke-opacity="1" stroke-width="1" stroke-linecap="square" stroke-linejoin="bevel" transform="matrix(1,0,0,1,12,55)"
font-family="Montserrat Black" font-size="13" font-weight="400" font-style="normal" 
>
<text fill="#666666" fill-opacity="1" stroke="none" xml:space="preserve" x="9.59375" y="629" font-family="Montserrat Black" font-size="13" font-weight="400" font-style="normal" 
 >10</text>
</g>
</g>

<g  clip-path="url(#clip2)" 
>
<g fill="none" stroke="#666666" stroke-opacity="1" stroke-width="1" stroke-linecap="square" stroke-linejoin="bevel" transform="matrix(1,0,0,1,12,55)"
font-family="Montserrat Black" font-size="13" font-weight="400" font-style="normal" 
>
<text fill="#666666" fill-opacity="1" stroke="none" xml:space="preserve" x="7.125" y="550" font-family="Montserrat Black" font-size="13" font-weight="400" font-style="normal" 
 >20</text>
</g>
</g>

<g  clip-path="url(#clip2)" 
>
<g fill="none" stroke="#666666" stroke-opacity="1" stroke-width="1" stroke-linecap="square" stroke-linejoin="bevel" transform="matrix(1,0,0,1,12,55)"
font-family="Montserrat Black" font-size="13" font-weight="400" font-style="normal" 
>
<text fill="#666666" fill-opacity="1" stroke="none" xml:space="preserve" x="7.04688" y="471" font-family="Montserrat Black" font-size="13" font-weight="400" font-style="normal" 
 >30</text>
</g>
</g>

<g  clip-path="url(#clip2)" 
>
<g fill="none" stroke="#666666" stroke-opacity="1" stroke-width="1" stroke-linecap="square" stroke-linejoin="bevel" transform="matrix(1,0,0,1,12,55)"
font-family="Montserrat Black" font-size="13" font-weight="400" font-style="normal" 
>
<text fill="#666666" fill-opacity="1" stroke="none" xml:space="preserve" x="5.76563" y="392" font-family="Montserrat Black" font-size="13" font-weight="400" font-style="normal" 
 >40</text>
</g>
</g>

<g  clip-path="url(#clip2)" 
>
<g fill="none" stroke="#666666" stroke-opacity="1" stroke-width="1" stroke-linecap="square" stroke-linejoin="bevel" transform="matrix(1,0,0,1,12,55)"
font-family="Montserrat Black" font-size="13" font-weight="400" font-style="normal" 
>
<text fill="#666666" fill-opacity="1" stroke="none" xml:space="preserve" x="6.96875" y="313" font-family="Montserrat Black" font-size="13" font-weight="400" font-style="normal" 
 >50</text>
</g>
</g>

<g  clip-path="url(#clip2)" 
>
<g fill="none" stroke="#666666" stroke-opacity="1" stroke-width="1" stroke-linecap="square" stroke-linejoin="bevel" transform="matrix(1,0,0,1,12,55)"
font-family="Montserrat Black" font-size="13" font-weight="400" font-style="normal" 
>
<text fill="#666666" fill-opacity="1" stroke="none" xml:space="preserve" x="6.4375" y="234" font-family="Montserrat Black" font-size="13" font-weight="400" font-style="normal" 
 >60</text>
</g>
</g>

<g  clip-path="url(#clip2)" 
>
<g fill="none" stroke="#666666" stroke-opacity="1" stroke-width="1" stroke-linecap="square" stroke-linejoin="bevel" transform="matrix(1,0,0,1,12,55)"
font-family="Montserrat Black" font-size="13" font-weight="400" font-style="normal" 
>
<text fill="#666666" fill-opacity="1" stroke="none" xml:space="preserve" x="6.64063" y="155" font-family="Montserrat Black" font-size="13" font-weight="400" font-style="normal" 
 >70</text>
</g>
</g>

<g  clip-path="url(#clip2)" 
>
<g fill="none" stroke="#666666" stroke-opacity="1" stroke-width="1" stroke-linecap="square" stroke-linejoin="bevel" transform="matrix(1,0,0,1,12,55)"
font-family="Montserrat Black" font-size="13" font-weight="400" font-style="normal" 
>
<text fill="#666666" fill-opacity="1" stroke="none" xml:space="preserve" x="6.20313" y="76" font-family="Montserrat Black" font-size="13" font-weight="400" font-style="normal" 
 >80</text>
</g>
</g>

<g >
<g fill="none" stroke="#666666" stroke-opacity="1" stroke-width="1" stroke-linecap="square" stroke-linejoin="bevel" transform="matrix(1,0,0,1,12,55)"
font-family="Montserrat Black" font-size="13" font-weight="400" font-style="normal" 
>
</g>
</g>

<g  clip-path="url(#clip2)" 
>
<g fill="none" stroke="#666666" stroke-opacity="1" stroke-width="1" stroke-linecap="square" stroke-linejoin="bevel" transform="matrix(1,0,0,1,43,55)"
font-family="Montserrat Black" font-size="13" font-weight="400" font-style="normal" 
>
</g>
</g>

<clipPath id ="clip3" >
<rect x="0" y="0" height="704" width="946" transform="matrix(1,0,0,1,43,55)" />
</clipPath>
<g  clip-path="url(#clip3)" 
>
<g fill="none" stroke="#666666" stroke-opacity="1" stroke-width="1" stroke-linecap="square" stroke-linejoin="bevel" transform="matrix(1,0,0,1,43,55)"
font-family="Montserrat Black" font-size="13" font-weight="400" font-style="normal" 
>
</g>
</g>

<clipPath id ="clip4" >
<rect x="0" y="0" height="704" width="946" transform="matrix(1,0,0,1,43,55)" />
</clipPath>
<g  clip-path="url(#clip4)" 
>
<g fill="none" stroke="#666666" stroke-opacity="1" stroke-width="1" stroke-linecap="square" stroke-linejoin="bevel" transform="matrix(1,0,0,1,43,55)"
font-family="Montserrat Black" font-size="13" font-weight="400" font-style="normal" 
>
</g>
</g>

<g  clip-path="url(#clip4)" 
>
<g fill="#ffffff" fill-opacity="1" stroke="none" transform="matrix(1,0,0,1,43,55)"
font-family="Montserrat Black" font-size="13" font-weight="400" font-style="normal" 
>
<rect x="0" y="0" width="946" height="704"/>
</g>
</g>

<g  clip-path="url(#clip4)" 
>
<g fill="#ffffff" fill-opacity="1" stroke="none" transform="matrix(1,0,0,1,43,55)"
font-family="Montserrat Black" font-size="13" font-weight="400" font-style="normal" 
>
<rect x="0" y="0" width="946" height="704"/>
</g>
</g>

<clipPath id ="clip5" >
<rect x="0" y="0" height="704" width="946" transform="matrix(1,0,0,1,43,55)" />
</clipPath>
<g  clip-path="url(#clip5)" 
>
<g fill="none" stroke="#666666" stroke-opacity="1" stroke-width="1" stroke-linecap="square" stroke-linejoin="bevel" transform="matrix(1,0,0,1,43,55)"
font-family="Montserrat Black" font-size="13" font-weight="400" font-style="normal" 
>
</g>
</g>

<g  clip-path="url(#clip5)" 
>
<g fill="#ffffff" fill-opacity="1" stroke="none" transform="matrix(1,0,0,1,43,55)"
font-family="Montserrat Black" font-size="13" font-weight="400" font-style="normal" 
>
<rect x="0" y="0" width="946" height="704"/>
</g>
</g>

<clipPath id ="clip6" >
<rect x="0" y="0" height="704" width="946" transform="matrix(1,0,0,1,43,55)" />
</clipPath>
<g  clip-path="url(#clip6)" 
>
<g fill="none" stroke="#666666" stroke-opacity="1" stroke-width="1" stroke-linecap="square" stroke-linejoin="bevel" transform="matrix(1,0,0,1,43,55)"
font-family="Montserrat Black" font-size="13" font-weight="400" font-style="normal" 
>
</g>
</g>

<clipPath id ="clip7" >
<rect x="0" y="0" height="704" width="946" transform="matrix(1,0,0,1,43,55)" />
</clipPath>
<g  clip-path="url(#clip7)" 
>
<g fill="none" stroke="#666666" stroke-opacity="1" stroke-width="1" stroke-linecap="square" stroke-linejoin="bevel" transform="matrix(1,0,0,1,43,55)"
font-family="Montserrat Black" font-size="13" font-weight="400" font-style="normal" 
>
</g>
</g>

<clipPath id ="clip8" >
<rect x="0" y="0" height="704" width="946" transform="matrix(1,0,0,1,43,55)" />
</clipPath>
<g  clip-path="url(#clip8)" 
>
<g fill="none" stroke="#666666" stroke-opacity="1" stroke-width="1" stroke-linecap="square" stroke-linejoin="bevel" transform="matrix(1,0,0,1,43,55)"
font-family="Montserrat Black" font-size="13" font-weight="400" font-style="normal" 
>
</g>
</g>

<clipPath id ="clip9" >
<rect x="0" y="0" height="704" width="946" transform="matrix(1,0,0,1,43,55)" />
</clipPath>
<g  clip-path="url(#clip9)" 
>
<g fill="none" stroke="#666666" stroke-opacity="1" stroke-width="1" stroke-linecap="square" stroke-linejoin="bevel" transform="matrix(1,0,0,1,43,55)"
font-family="Montserrat Black" font-size="13" font-weight="400" font-style="normal" 
>
</g>
</g>

<g  clip-path="url(#clip9)" 
>
<g fill="#ffffff" fill-opacity="1" stroke="none" transform="matrix(1,0,0,1,43,55)"
font-family="Montserrat Black" font-size="13" font-weight="400" font-style="normal" 
>
<rect x="0" y="0" width="946" height="704"/>
</g>
</g>

<clipPath id ="clip10" >
<rect x="0" y="0" height="704" width="946" transform="matrix(1,0,0,1,43,55)" />
</clipPath>
<g  clip-path="url(#clip10)" 
>
<g fill="none" stroke="#666666" stroke-opacity="1" stroke-width="1" stroke-linecap="square" stroke-linejoin="bevel" transform="matrix(1,0,0,1,43,55)"
font-family="Montserrat Black" font-size="13" font-weight="400" font-style="normal" 
>
</g>
</g>

<clipPath id ="clip11" >
<rect x="0" y="0" height="703" width="945" transform="matrix(1,0,0,1,43,55)" />
</clipPath>
<g  clip-path="url(#clip11)" 
>
<g fill="none" stroke="#666666" stroke-opacity="1" stroke-width="1" stroke-linecap="square" stroke-linejoin="bevel" transform="matrix(1,0,0,1,43,55)"
font-family="Montserrat Black" font-size="13" font-weight="400" font-style="normal" 
>
</g>
</g>

<g  clip-path="url(#clip11)" 
>
<g fill="none" stroke="#f2f2f2" stroke-opacity="1" stroke-width="1" stroke-linecap="square" stroke-linejoin="bevel" transform="matrix(1,0,0,1,43,55)"
font-family="Montserrat Black" font-size="13" font-weight="400" font-style="normal" 
>
<polyline fill="none" vector-effect="none" points="0,624 945,624 " />
<polyline fill="none" vector-effect="none" points="0,545 945,545 " />
<polyline fill="none" vector-effect="none" points="0,466 945,466 " />
<polyline fill="none" vector-effect="none" points="0,387 945,387 " />
<polyline fill="none" vector-effect="none" points="0,308 945,308 " />
<polyline fill="none" vector-effect="none" points="0,229 945,229 " />
<polyline fill="none" vector-effect="none" points="0,150 945,150 " />
<polyline fill="none" vector-effect="none" points="0,71 945,71 " />
</g>
</g>

<clipPath id ="clip12" >
<rect x="0" y="0" height="704" width="946" transform="matrix(1,0,0,1,43,55)" />
</clipPath>
<g  clip-path="url(#clip12)" 
>
<g fill="none" stroke="#f2f2f2" stroke-opacity="1" stroke-width="1" stroke-linecap="square" stroke-linejoin="bevel" transform="matrix(1,0,0,1,43,55)"
font-family="Montserrat Black" font-size="13" font-weight="400" font-style="normal" 
>
</g>
</g>

<clipPath id ="clip13" >
<rect x="0" y="0" height="703" width="945" transform="matrix(1,0,0,1,43,55)" />
</clipPath>
<g  clip-path="url(#clip13)" 
>
<g fill="none" stroke="#f2f2f2" stroke-opacity="1" stroke-width="1" stroke-linecap="square" stroke-linejoin="bevel" transform="matrix(1,0,0,1,43,55)"
font-family="Montserrat Black" font-size="13" font-weight="400" font-style="normal" 
>
</g>
</g>

<g  clip-path="url(#clip13)" 
>
<g fill="none" stroke="#cbcbcb" stroke-opacity="1" stroke-dasharray="1,2" stroke-dashoffset="0" stroke-width="1" stroke-linecap="square" stroke-linejoin="bevel" transform="matrix(1,0,0,1,43,55)"
font-family="Montserrat Black" font-size="13" font-weight="400" font-style="normal" 
>
<polyline fill="none" vector-effect="none" points="0,703 945,703 " />
</g>
</g>

<clipPath id ="clip14" >
<rect x="0" y="0" height="704" width="946" transform="matrix(1,0,0,1,43,55)" />
</clipPath>
<g  clip-path="url(#clip14)" 
>
<g fill="none" stroke="#cbcbcb" stroke-opacity="1" stroke-dasharray="1,2" stroke-dashoffset="0" stroke-width="1" stroke-linecap="square" stroke-linejoin="bevel" transform="matrix(1,0,0,1,43,55)"
font-family="Montserrat Black" font-size="13" font-weight="400" font-style="normal" 
>
</g>
</g>

<clipPath id ="clip15" >
<rect x="0" y="0" height="703" width="945" transform="matrix(1,0,0,1,43,55)" />
</clipPath>
<g  clip-path="url(#clip15)" 
>
<g fill="none" stroke="#cbcbcb" stroke-opacity="1" stroke-dasharray="1,2" stroke-dashoffset="0" stroke-width="1" stroke-linecap="square" stroke-linejoin="bevel" transform="matrix(1,0,0,1,43,55)"
font-family="Montserrat Black" font-size="13" font-weight="400" font-style="normal" 
>
</g>
</g>

<clipPath id ="clip16" >
<rect x="0" y="0" height="704" width="946" transform="matrix(1,0,0,1,43,55)" />
</clipPath>
<g  clip-path="url(#clip16)" 
>
<g fill="none" stroke="#cbcbcb" stroke-opacity="1" stroke-dasharray="1,2" stroke-dashoffset="0" stroke-width="1" stroke-linecap="square" stroke-linejoin="bevel" transform="matrix(1,0,0,1,43,55)"
font-family="Montserrat Black" font-size="13" font-weight="400" font-style="normal" 
>
</g>
</g>

<clipPath id ="clip17" >
<rect x="0" y="0" height="704" width="946" transform="matrix(1,0,0,1,43,55)" />
</clipPath>
<g  clip-path="url(#clip17)" 
>
<g fill="none" stroke="#cbcbcb" stroke-opacity="1" stroke-dasharray="1,2" stroke-dashoffset="0" stroke-width="1" stroke-linecap="square" stroke-linejoin="bevel" transform="matrix(1,0,0,1,43,55)"
font-family="Montserrat Black" font-size="13" font-weight="400" font-style="normal" 
>
</g>
</g>

<clipPath id ="clip18" >
<rect x="0" y="0" height="703" width="945" transform="matrix(1,0,0,1,43,55)" />
</clipPath>
<g  clip-path="url(#clip18)" 
>
<g fill="none" stroke="#cbcbcb" stroke-opacity="1" stroke-dasharray="1,2" stroke-dashoffset="0" stroke-width="1" stroke-linecap="square" stroke-linejoin="bevel" transform="matrix(1,0,0,1,43,55)"
font-family="Montserrat Black" font-size="13" font-weight="400" font-style="normal" 
>
</g>
</g>

<clipPath id ="clip19" >
<rect x="0" y="0" height="704" width="946" transform="matrix(1,0,0,1,43,55)" />
</clipPath>
<g  clip-path="url(#clip19)" 
>
<g fill="none" stroke="#cbcbcb" stroke-opacity="1" stroke-dasharray="1,2" stroke-dashoffset="0" stroke-width="1" stroke-linecap="square" stroke-linejoin="bevel" transform="matrix(1,0,0,1,43,55)"
font-family="Montserrat Black" font-size="13" font-weight="400" font-style="normal" 
>
</g>
</g>

<clipPath id ="clip20" >
<rect x="0" y="0" height="703" width="945" transform="matrix(1,0,0,1,43,55)" />
</clipPath>
<g  clip-path="url(#clip20)" 
>
<g fill="none" stroke="#cbcbcb" stroke-opacity="1" stroke-dasharray="1,2" stroke-dashoffset="0" stroke-width="1" stroke-linecap="square" stroke-linejoin="bevel" transform="matrix(1,0,0,1,43,55)"
font-family="Montserrat Black" font-size="13" font-weight="400" font-style="normal" 
>
</g>
</g>

<clipPath id ="clip21" >
<rect x="0" y="0" height="704" width="946" transform="matrix(1,0,0,1,43,55)" />
</clipPath>
<g  clip-path="url(#clip21)" 
>
<g fill="none" stroke="#cbcbcb" stroke-opacity="1" stroke-dasharray="1,2" stroke-dashoffset="0" stroke-width="1" stroke-linecap="square" stroke-linejoin="bevel" transform="matrix(1,0,0,1,43,55)"
font-family="Montserrat Black" font-size="13" font-weight="400" font-style="normal" 
>
</g>
</g>

<clipPath id ="clip22" >
<rect x="0" y="0" height="703" width="945" transform="matrix(1,0,0,1,43,55)" />
</clipPath>
<g  clip-path="url(#clip22)" 
>
<g fill="none" stroke="#cbcbcb" stroke-opacity="1" stroke-dasharray="1,2" stroke-dashoffset="0" stroke-width="1" stroke-linecap="square" stroke-linejoin="bevel" transform="matrix(1,0,0,1,43,55)"
font-family="Montserrat Black" font-size="13" font-weight="400" font-style="normal" 
>
</g>
</g>

<g  clip-path="url(#clip22)" 
>
<g fill="none" stroke="#59a14f" stroke-opacity="1" stroke-width="3" stroke-linecap="round" stroke-linejoin="round" transform="matrix(1,0,0,1,43,55)"
font-family="Montserrat Black" font-size="13" font-weight="400" font-style="normal" 
>
<polyline fill="none" vector-effect="none" points="44.8182,695.601 133.389,679.803 148.145,687.702 162.94,648.208 177.695,687.702 192.45,687.702 207.205,679.803 222.001,664.006 236.756,679.803 251.511,671.904 266.266,648.208 281.062,632.41 295.817,608.714 310.572,624.511 325.327,521.826 340.123,371.747 354.878,482.331 369.633,434.938 384.388,474.433 399.184,521.826 413.939,513.927 428.694,553.421 443.449,513.927 458.245,529.725 473,616.612 487.755,521.826 502.51,482.331 517.306,482.331 532.061,498.129 546.816,553.421 561.571,513.927 576.367,458.635 591.122,490.23 605.877,585.017 620.632,387.545 635.428,411.242 650.183,292.758 664.938,411.242 679.693,316.455 694.489,95.2865 709.244,324.354 723.999,308.556 738.754,450.736 753.55,237.466 768.305,411.242 783.06,363.848 797.815,276.961 812.611,39.9944 827.366,158.478 842.121,150.579 856.876,434.938 871.672,466.534 886.427,427.039 901.182,624.511 " />
</g>
</g>

<g  clip-path="url(#clip22)" 
>
<g fill="none" stroke="#cbcbcb" stroke-opacity="1" stroke-dasharray="1,2" stroke-dashoffset="0" stroke-width="1" stroke-linecap="square" stroke-linejoin="bevel" transform="matrix(1,0,0,1,43,55)"
font-family="Montserrat Black" font-size="13" font-weight="400" font-style="normal" 
>
<path vector-effect="none" fill-rule="nonzero" d="M0,0"/>
</g>
</g>

<clipPath id ="clip23" >
<rect x="0" y="0" height="704" width="946" transform="matrix(1,0,0,1,43,55)" />
</clipPath>
<g  clip-path="url(#clip23)" 
>
<g fill="none" stroke="#cbcbcb" stroke-opacity="1" stroke-dasharray="1,2" stroke-dashoffset="0" stroke-width="1" stroke-linecap="square" stroke-linejoin="bevel" transform="matrix(1,0,0,1,43,55)"
font-family="Montserrat Black" font-size="13" font-weight="400" font-style="normal" 
>
</g>
</g>

<clipPath id ="clip24" >
<rect x="0" y="0" height="704" width="946" transform="matrix(1,0,0,1,43,55)" />
</clipPath>
<g  clip-path="url(#clip24)" 
>
<g fill="none" stroke="#cbcbcb" stroke-opacity="1" stroke-dasharray="1,2" stroke-dashoffset="0" stroke-width="1" stroke-linecap="square" stroke-linejoin="bevel" transform="matrix(1,0,0,1,43,55)"
font-family="Montserrat Black" font-size="13" font-weight="400" font-style="normal" 
>
</g>
</g>

<clipPath id ="clip25" >
<rect x="0" y="0" height="703" width="945" transform="matrix(1,0,0,1,43,55)" />
</clipPath>
<g  clip-path="url(#clip25)" 
>
<g fill="none" stroke="#cbcbcb" stroke-opacity="1" stroke-dasharray="1,2" stroke-dashoffset="0" stroke-width="1" stroke-linecap="square" stroke-linejoin="bevel" transform="matrix(1,0,0,1,43,55)"
font-family="Montserrat Black" font-size="13" font-weight="400" font-style="normal" 
>
</g>
</g>

<clipPath id ="clip26" >
<rect x="0" y="0" height="704" width="946" transform="matrix(1,0,0,1,43,55)" />
</clipPath>
<g  clip-path="url(#clip26)" 
>
<g fill="none" stroke="#cbcbcb" stroke-opacity="1" stroke-dasharray="1,2" stroke-dashoffset="0" stroke-width="1" stroke-linecap="square" stroke-linejoin="bevel" transform="matrix(1,0,0,1,43,55)"
font-family="Montserrat Black" font-size="13" font-weight="400" font-style="normal" 
>
</g>
</g>

<clipPath id ="clip27" >
<rect x="0" y="0" height="703" width="945" transform="matrix(1,0,0,1,43,55)" />
</clipPath>
<g  clip-path="url(#clip27)" 
>
<g fill="none" stroke="#cbcbcb" stroke-opacity="1" stroke-dasharray="1,2" stroke-dashoffset="0" stroke-width="1" stroke-linecap="square" stroke-linejoin="bevel" transform="matrix(1,0,0,1,43,55)"
font-family="Montserrat Black" font-size="13" font-weight="400" font-style="normal" 
>
</g>
</g>

<clipPath id ="clip28" >
<rect x="0" y="0" height="704" width="946" transform="matrix(1,0,0,1,43,55)" />
</clipPath>
<g  clip-path="url(#clip28)" 
>
<g fill="none" stroke="#cbcbcb" stroke-opacity="1" stroke-dasharray="1,2" stroke-dashoffset="0" stroke-width="1" stroke-linecap="square" stroke-linejoin="bevel" transform="matrix(1,0,0,1,43,55)"
font-family="Montserrat Black" font-size="13" font-weight="400" font-style="normal" 
>
</g>
</g>

<clipPath id ="clip29" >
<rect x="0" y="0" height="703" width="945" transform="matrix(1,0,0,1,43,55)" />
</clipPath>
<g  clip-path="url(#clip29)" 
>
<g fill="none" stroke="#cbcbcb" stroke-opacity="1" stroke-dasharray="1,2" stroke-dashoffset="0" stroke-width="1" stroke-linecap="square" stroke-linejoin="bevel" transform="matrix(1,0,0,1,43,55)"
font-family="Montserrat Black" font-size="13" font-weight="400" font-style="normal" 
>
</g>
</g>

<clipPath id ="clip30" >
<rect x="0" y="0" height="704" width="946" transform="matrix(1,0,0,1,43,55)" />
</clipPath>
<g  clip-path="url(#clip30)" 
>
<g fill="none" stroke="#cbcbcb" stroke-opacity="1" stroke-dasharray="1,2" stroke-dashoffset="0" stroke-width="1" stroke-linecap="square" stroke-linejoin="bevel" transform="matrix(1,0,0,1,43,55)"
font-family="Montserrat Black" font-size="13" font-weight="400" font-style="normal" 
>
</g>
</g>

<clipPath id ="clip31" >
<rect x="0" y="0" height="704" width="946" transform="matrix(1,0,0,1,43,55)" />
</clipPath>
<g  clip-path="url(#clip31)" 
>
<g fill="none" stroke="#cbcbcb" stroke-opacity="1" stroke-dasharray="1,2" stroke-dashoffset="0" stroke-width="1" stroke-linecap="square" stroke-linejoin="bevel" transform="matrix(1,0,0,1,43,55)"
font-family="Montserrat Black" font-size="13" font-weight="400" font-style="normal" 
>
</g>
</g>

<clipPath id ="clip32" >
<rect x="0" y="0" height="703" width="945" transform="matrix(1,0,0,1,43,55)" />
</clipPath>
<g  clip-path="url(#clip32)" 
>
<g fill="none" stroke="#cbcbcb" stroke-opacity="1" stroke-dasharray="1,2" stroke-dashoffset="0" stroke-width="1" stroke-linecap="square" stroke-linejoin="bevel" transform="matrix(1,0,0,1,43,55)"
font-family="Montserrat Black" font-size="13" font-weight="400" font-style="normal" 
>
</g>
</g>

<clipPath id ="clip33" >
<rect x="0" y="0" height="704" width="946" transform="matrix(1,0,0,1,43,55)" />
</clipPath>
<g  clip-path="url(#clip33)" 
>
<g fill="none" stroke="#cbcbcb" stroke-opacity="1" stroke-dasharray="1,2" stroke-dashoffset="0" stroke-width="1" stroke-linecap="square" stroke-linejoin="bevel" transform="matrix(1,0,0,1,43,55)"
font-family="Montserrat Black" font-size="13" font-weight="400" font-style="normal" 
>
</g>
</g>

<clipPath id ="clip34" >
<rect x="0" y="0" height="703" width="945" transform="matrix(1,0,0,1,43,55)" />
</clipPath>
<g  clip-path="url(#clip34)" 
>
<g fill="none" stroke="#cbcbcb" stroke-opacity="1" stroke-dasharray="1,2" stroke-dashoffset="0" stroke-width="1" stroke-linecap="square" stroke-linejoin="bevel" transform="matrix(1,0,0,1,43,55)"
font-family="Montserrat Black" font-size="13" font-weight="400" font-style="normal" 
>
</g>
</g>

<clipPath id ="clip35" >
<rect x="0" y="0" height="704" width="946" transform="matrix(1,0,0,1,43,55)" />
</clipPath>
<g  clip-path="url(#clip35)" 
>
<g fill="none" stroke="#cbcbcb" stroke-opacity="1" stroke-dasharray="1,2" stroke-dashoffset="0" stroke-width="1" stroke-linecap="square" stroke-linejoin="bevel" transform="matrix(1,0,0,1,43,55)"
font-family="Montserrat Black" font-size="13" font-weight="400" font-style="normal" 
>
</g>
</g>

<clipPath id ="clip36" >
<rect x="0" y="0" height="703" width="945" transform="matrix(1,0,0,1,43,55)" />
</clipPath>
<g  clip-path="url(#clip36)" 
>
<g fill="none" stroke="#cbcbcb" stroke-opacity="1" stroke-dasharray="1,2" stroke-dashoffset="0" stroke-width="1" stroke-linecap="square" stroke-linejoin="bevel" transform="matrix(1,0,0,1,43,55)"
font-family="Montserrat Black" font-size="13" font-weight="400" font-style="normal" 
>
</g>
</g>

<clipPath id ="clip37" >
<rect x="0" y="0" height="704" width="946" transform="matrix(1,0,0,1,43,55)" />
</clipPath>
<g  clip-path="url(#clip37)" 
>
<g fill="none" stroke="#cbcbcb" stroke-opacity="1" stroke-dasharray="1,2" stroke-dashoffset="0" stroke-width="1" stroke-linecap="square" stroke-linejoin="bevel" transform="matrix(1,0,0,1,43,55)"
font-family="Montserrat Black" font-size="13" font-weight="400" font-style="normal" 
>
</g>
</g>

<clipPath id ="clip38" >
<rect x="0" y="0" height="704" width="946" transform="matrix(1,0,0,1,43,55)" />
</clipPath>
<g  clip-path="url(#clip38)" 
>
<g fill="none" stroke="#cbcbcb" stroke-opacity="1" stroke-dasharray="1,2" stroke-dashoffset="0" stroke-width="1" stroke-linecap="square" stroke-linejoin="bevel" transform="matrix(1,0,0,1,43,55)"
font-family="Montserrat Black" font-size="13" font-weight="400" font-style="normal" 
>
</g>
</g>

<clipPath id ="clip39" >
<rect x="0" y="0" height="703" width="945" transform="matrix(1,0,0,1,43,55)" />
</clipPath>
<g  clip-path="url(#clip39)" 
>
<g fill="none" stroke="#cbcbcb" stroke-opacity="1" stroke-dasharray="1,2" stroke-dashoffset="0" stroke-width="1" stroke-linecap="square" stroke-linejoin="bevel" transform="matrix(1,0,0,1,43,55)"
font-family="Montserrat Black" font-size="13" font-weight="400" font-style="normal" 
>
</g>
</g>

<clipPath id ="clip40" >
<rect x="0" y="0" height="704" width="946" transform="matrix(1,0,0,1,43,55)" />
</clipPath>
<g  clip-path="url(#clip40)" 
>
<g fill="none" stroke="#cbcbcb" stroke-opacity="1" stroke-dasharray="1,2" stroke-dashoffset="0" stroke-width="1" stroke-linecap="square" stroke-linejoin="bevel" transform="matrix(1,0,0,1,43,55)"
font-family="Montserrat Black" font-size="13" font-weight="400" font-style="normal" 
>
</g>
</g>

<clipPath id ="clip41" >
<rect x="0" y="0" height="703" width="945" transform="matrix(1,0,0,1,43,55)" />
</clipPath>
<g  clip-path="url(#clip41)" 
>
<g fill="none" stroke="#cbcbcb" stroke-opacity="1" stroke-dasharray="1,2" stroke-dashoffset="0" stroke-width="1" stroke-linecap="square" stroke-linejoin="bevel" transform="matrix(1,0,0,1,43,55)"
font-family="Montserrat Black" font-size="13" font-weight="400" font-style="normal" 
>
</g>
</g>

<clipPath id ="clip42" >
<rect x="0" y="0" height="704" width="946" transform="matrix(1,0,0,1,43,55)" />
</clipPath>
<g  clip-path="url(#clip42)" 
>
<g fill="none" stroke="#cbcbcb" stroke-opacity="1" stroke-dasharray="1,2" stroke-dashoffset="0" stroke-width="1" stroke-linecap="square" stroke-linejoin="bevel" transform="matrix(1,0,0,1,43,55)"
font-family="Montserrat Black" font-size="13" font-weight="400" font-style="normal" 
>
</g>
</g>

<clipPath id ="clip43" >
<rect x="0" y="0" height="703" width="945" transform="matrix(1,0,0,1,43,55)" />
</clipPath>
<g  clip-path="url(#clip43)" 
>
<g fill="none" stroke="#cbcbcb" stroke-opacity="1" stroke-dasharray="1,2" stroke-dashoffset="0" stroke-width="1" stroke-linecap="square" stroke-linejoin="bevel" transform="matrix(1,0,0,1,43,55)"
font-family="Montserrat Black" font-size="13" font-weight="400" font-style="normal" 
>
</g>
</g>

<clipPath id ="clip44" >
<rect x="0" y="0" height="704" width="946" transform="matrix(1,0,0,1,43,55)" />
</clipPath>
<g  clip-path="url(#clip44)" 
>
<g fill="none" stroke="#cbcbcb" stroke-opacity="1" stroke-dasharray="1,2" stroke-dashoffset="0" stroke-width="1" stroke-linecap="square" stroke-linejoin="bevel" transform="matrix(1,0,0,1,43,55)"
font-family="Montserrat Black" font-size="13" font-weight="400" font-style="normal" 
>
</g>
</g>

<clipPath id ="clip45" >
<rect x="0" y="0" height="704" width="946" transform="matrix(1,0,0,1,43,55)" />
</clipPath>
<g  clip-path="url(#clip45)" 
>
<g fill="none" stroke="#cbcbcb" stroke-opacity="1" stroke-dasharray="1,2" stroke-dashoffset="0" stroke-width="1" stroke-linecap="square" stroke-linejoin="bevel" transform="matrix(1,0,0,1,43,55)"
font-family="Montserrat Black" font-size="13" font-weight="400" font-style="normal" 
>
</g>
</g>

<clipPath id ="clip46" >
<rect x="0" y="0" height="703" width="945" transform="matrix(1,0,0,1,43,55)" />
</clipPath>
<g  clip-path="url(#clip46)" 
>
<g fill="none" stroke="#cbcbcb" stroke-opacity="1" stroke-dasharray="1,2" stroke-dashoffset="0" stroke-width="1" stroke-linecap="square" stroke-linejoin="bevel" transform="matrix(1,0,0,1,43,55)"
font-family="Montserrat Black" font-size="13" font-weight="400" font-style="normal" 
>
</g>
</g>

<clipPath id ="clip47" >
<rect x="0" y="0" height="704" width="946" transform="matrix(1,0,0,1,43,55)" />
</clipPath>
<g  clip-path="url(#clip47)" 
>
<g fill="none" stroke="#cbcbcb" stroke-opacity="1" stroke-dasharray="1,2" stroke-dashoffset="0" stroke-width="1" stroke-linecap="square" stroke-linejoin="bevel" transform="matrix(1,0,0,1,43,55)"
font-family="Montserrat Black" font-size="13" font-weight="400" font-style="normal" 
>
</g>
</g>

<clipPath id ="clip48" >
<rect x="0" y="0" height="703" width="945" transform="matrix(1,0,0,1,43,55)" />
</clipPath>
<g  clip-path="url(#clip48)" 
>
<g fill="none" stroke="#cbcbcb" stroke-opacity="1" stroke-dasharray="1,2" stroke-dashoffset="0" stroke-width="1" stroke-linecap="square" stroke-linejoin="bevel" transform="matrix(1,0,0,1,43,55)"
font-family="Montserrat Black" font-size="13" font-weight="400" font-style="normal" 
>
</g>
</g>

<clipPath id ="clip49" >
<rect x="0" y="0" height="704" width="946" transform="matrix(1,0,0,1,43,55)" />
</clipPath>
<g  clip-path="url(#clip49)" 
>
<g fill="none" stroke="#cbcbcb" stroke-opacity="1" stroke-dasharray="1,2" stroke-dashoffset="0" stroke-width="1" stroke-linecap="square" stroke-linejoin="bevel" transform="matrix(1,0,0,1,43,55)"
font-family="Montserrat Black" font-size="13" font-weight="400" font-style="normal" 
>
</g>
</g>

<clipPath id ="clip50" >
<rect x="0" y="0" height="703" width="945" transform="matrix(1,0,0,1,43,55)" />
</clipPath>
<g  clip-path="url(#clip50)" 
>
<g fill="none" stroke="#cbcbcb" stroke-opacity="1" stroke-dasharray="1,2" stroke-dashoffset="0" stroke-width="1" stroke-linecap="square" stroke-linejoin="bevel" transform="matrix(1,0,0,1,43,55)"
font-family="Montserrat Black" font-size="13" font-weight="400" font-style="normal" 
>
</g>
</g>

<clipPath id ="clip51" >
<rect x="0" y="0" height="704" width="946" transform="matrix(1,0,0,1,43,55)" />
</clipPath>
<g  clip-path="url(#clip51)" 
>
<g fill="none" stroke="#cbcbcb" stroke-opacity="1" stroke-dasharray="1,2" stroke-dashoffset="0" stroke-width="1" stroke-linecap="square" stroke-linejoin="bevel" transform="matrix(1,0,0,1,43,55)"
font-family="Montserrat Black" font-size="13" font-weight="400" font-style="normal" 
>
</g>
</g>

<clipPath id ="clip52" >
<rect x="0" y="0" height="704" width="946" transform="matrix(1,0,0,1,43,55)" />
</clipPath>
<g  clip-path="url(#clip52)" 
>
<g fill="none" stroke="#cbcbcb" stroke-opacity="1" stroke-dasharray="1,2" stroke-dashoffset="0" stroke-width="1" stroke-linecap="square" stroke-linejoin="bevel" transform="matrix(1,0,0,1,43,55)"
font-family="Montserrat Black" font-size="13" font-weight="400" font-style="normal" 
>
</g>
</g>

<clipPath id ="clip53" >
<rect x="0" y="0" height="704" width="946" transform="matrix(1,0,0,1,43,55)" />
</clipPath>
<g  clip-path="url(#clip53)" 
>
<g fill="none" stroke="#cbcbcb" stroke-opacity="1" stroke-dasharray="1,2" stroke-dashoffset="0" stroke-width="1" stroke-linecap="square" stroke-linejoin="bevel" transform="matrix(1,0,0,1,43,55)"
font-family="Montserrat Black" font-size="13" font-weight="400" font-style="normal" 
>
</g>
</g>

<g  clip-path="url(#clip53)" 
>
<g fill="none" stroke="#f5f5f5" stroke-opacity="1" stroke-width="1" stroke-linecap="square" stroke-linejoin="bevel" transform="matrix(1,0,0,1,43,55)"
font-family="Montserrat Black" font-size="13" font-weight="400" font-style="normal" 
>
<polyline fill="none" vector-effect="none" points="0,703 945,703 " />
<polyline fill="none" vector-effect="none" points="0,0 0,703 " />
</g>
</g>

<clipPath id ="clip54" >
<rect x="0" y="0" height="704" width="946" transform="matrix(1,0,0,1,43,55)" />
</clipPath>
<g  clip-path="url(#clip54)" 
>
<g fill="none" stroke="#f5f5f5" stroke-opacity="1" stroke-width="1" stroke-linecap="square" stroke-linejoin="bevel" transform="matrix(1,0,0,1,43,55)"
font-family="Montserrat Black" font-size="13" font-weight="400" font-style="normal" 
>
</g>
</g>

<g >
<g fill="none" stroke="#f5f5f5" stroke-opacity="1" stroke-width="1" stroke-linecap="square" stroke-linejoin="bevel" transform="matrix(1,0,0,1,43,55)"
font-family="Montserrat Black" font-size="13" font-weight="400" font-style="normal" 
>
</g>
</g>

<g >
<g fill="none" stroke="#333333" stroke-opacity="1" stroke-width="1" stroke-linecap="square" stroke-linejoin="bevel" transform="matrix(1,0,0,1,0,0)"
font-family="Montserrat ExtraBold" font-size="20" font-weight="400" font-style="normal" 
>
<text fill="#333333" fill-opacity="1" stroke="none" xml:space="preserve" x="242.547" y="36" font-family="Montserrat ExtraBold" font-size="20" font-weight="400" font-style="normal" 
 >Nombre de notices publiées par années</text>
</g>
</g>

<g >
<g fill="none" stroke="#666666" stroke-opacity="1" stroke-width="1" stroke-linecap="square" stroke-linejoin="bevel" transform="matrix(1,0,0,1,0,0)"
font-family="Arial" font-size="12" font-weight="700" font-style="normal" 
>
<text fill="#666666" fill-opacity="1" stroke="none" xml:space="preserve" x="913.406" y="33" font-family="Arial" font-size="12" font-weight="700" font-style="normal" 
 >Source : INA</text>
</g>
</g>
</g>
</svg>
